<?xml version="1.0" encoding="UTF-8" standalone="no"?>
<!-- Created with Inkscape (http://www.inkscape.org/) -->

<svg
   xmlns:dc="http://purl.org/dc/elements/1.1/"
   xmlns:cc="http://creativecommons.org/ns#"
   xmlns:rdf="http://www.w3.org/1999/02/22-rdf-syntax-ns#"
   xmlns:svg="http://www.w3.org/2000/svg"
   xmlns="http://www.w3.org/2000/svg"
   xmlns:sodipodi="http://sodipodi.sourceforge.net/DTD/sodipodi-0.dtd"
   xmlns:inkscape="http://www.inkscape.org/namespaces/inkscape"
   width="40mm"
   height="40mm"
   viewBox="0 0 40 40"
   version="1.1"
   id="svg8"
   inkscape:version="0.92.5 (2060ec1f9f, 2020-04-08)"
   sodipodi:docname="help-icon.svg">
  <defs
     id="defs2">
    <inkscape:path-effect
       effect="spiro"
       id="path-effect948"
       is_visible="true" />
    <inkscape:path-effect
       effect="bspline"
       id="path-effect938"
       is_visible="true"
       weight="33.333333"
       steps="2"
       helper_size="0"
       apply_no_weight="true"
       apply_with_weight="true"
       only_selected="false" />
    <inkscape:path-effect
       effect="skeletal"
       id="path-effect924"
       is_visible="true"
       pattern="M 0,5 C 0,2.24 2.24,0 5,0 7.76,0 10,2.24 10,5 10,7.76 7.76,10 5,10 2.24,10 0,7.76 0,5 Z"
       copytype="single_stretched"
       prop_scale="-58.4278"
       scale_y_rel="false"
       spacing="0"
       normal_offset="0"
       tang_offset="0"
       prop_units="false"
       vertical_pattern="false"
       fuse_tolerance="0" />
    <inkscape:path-effect
       effect="skeletal"
       id="path-effect48"
       is_visible="true"
       pattern="M 0,5 C 0,2.24 2.24,0 5,0 7.76,0 10,2.24 10,5 10,7.76 7.76,10 5,10 2.24,10 0,7.76 0,5 Z"
       copytype="single_stretched"
       prop_scale="-73.0372"
       scale_y_rel="false"
       spacing="0"
       normal_offset="0"
       tang_offset="0"
       prop_units="false"
       vertical_pattern="false"
       fuse_tolerance="0" />
    <inkscape:path-effect
       effect="simplify"
       id="path-effect46"
       is_visible="true"
       steps="1"
       threshold="0.00146067"
       smooth_angles="360"
       helper_size="0"
       simplify_individual_paths="false"
       simplify_just_coalesce="false"
       simplifyindividualpaths="false"
       simplifyJustCoalesce="false" />
    <inkscape:path-effect
       effect="simplify"
       id="path-effect46-7"
       is_visible="true"
       steps="1"
       threshold="0.00146067"
       smooth_angles="360"
       helper_size="0"
       simplify_individual_paths="false"
       simplify_just_coalesce="false"
       simplifyindividualpaths="false"
       simplifyJustCoalesce="false" />
    <inkscape:path-effect
       effect="skeletal"
       id="path-effect48-5"
       is_visible="true"
       pattern="M 0,5 C 0,2.24 2.24,0 5,0 7.76,0 10,2.24 10,5 10,7.76 7.76,10 5,10 2.24,10 0,7.76 0,5 Z"
       copytype="single_stretched"
       prop_scale="-73.0372"
       scale_y_rel="false"
       spacing="0"
       normal_offset="0"
       tang_offset="0"
       prop_units="false"
       vertical_pattern="false"
       fuse_tolerance="0" />
  </defs>
  <sodipodi:namedview
     id="base"
     pagecolor="#ffffff"
     bordercolor="#666666"
     borderopacity="1.0"
     inkscape:pageopacity="0.0"
     inkscape:pageshadow="2"
     inkscape:zoom="1"
     inkscape:cx="-40.35043"
     inkscape:cy="57.349406"
     inkscape:document-units="mm"
     inkscape:current-layer="layer1"
     showgrid="false"
     inkscape:window-width="1366"
     inkscape:window-height="704"
     inkscape:window-x="0"
     inkscape:window-y="27"
     inkscape:window-maximized="1"
     inkscape:object-paths="true"
     inkscape:snap-nodes="true"
     inkscape:snap-others="false"
     inkscape:snap-bbox="false" />
  <metadata
     id="metadata5">
    <rdf:RDF>
      <cc:Work
         rdf:about="">
        <dc:format>image/svg+xml</dc:format>
        <dc:type
           rdf:resource="http://purl.org/dc/dcmitype/StillImage" />
        <dc:title />
      </cc:Work>
    </rdf:RDF>
  </metadata>
  <g
     inkscape:label="Camada 1"
     inkscape:groupmode="layer"
     id="layer1"
     transform="translate(0,-257)">
    <path
       style="fill:#ffffff;fill-opacity:1;stroke-width:0.75337958"
       d="m 19.227961,283.27719 c 0.340905,-1.63557 1.678685,-1.73563 1.984662,-0.14856 0.158971,0.8242 -0.210822,1.31771 -0.987189,1.31771 -0.724174,0 -1.139693,-0.48708 -0.997473,-1.16924 z m 0.169541,-5.39095 c 0.146436,-0.68256 0.438891,-1.28475 1.345483,-2.24874 1.290887,-1.37263 1.450285,-1.95054 0.734972,-2.66509 -0.715314,-0.71454 -1.25217,-0.70111 -2.475536,0.062 -1.891815,1.18011 -2.79154,0.52126 -1.688599,-1.23662 1.742701,-2.77754 7.057297,-1.54242 7.057297,1.64011 0,0.95659 -0.678391,2.35253 -1.507549,3.10211 -0.829186,0.74958 -1.666821,2.6493 -1.608529,3.48494 0.0077,0.85243 -0.508794,1.01277 -1.13069,1.01277 -0.621868,0 -1.315744,-0.43671 -1.130662,-1.26919 z"
       id="path3726"
       inkscape:connector-curvature="0"
       sodipodi:nodetypes="ccsccscssssccscs" />
    <path
       style="fill:#000000;stroke:none;stroke-width:0.26458332px;stroke-linecap:butt;stroke-linejoin:miter;stroke-opacity:1"
       d="M 13.369405,250.81478 C -187.6625,265.706 -350.77694,278.35707 -350.72533,279.05377 c 0.0516,0.69671 163.24982,-10.82347 364.28172,-25.71469 201.0319,-14.89121 364.14634,-27.54228 364.09473,-28.23899 -0.0516,-0.69671 -163.24981,10.82347 -364.281715,25.71469 z"
       id="path44"
       inkscape:connector-curvature="0"
       inkscape:path-effect="#path-effect46;#path-effect48"
       inkscape:original-d="m 13.369405,250.81478 0.186985,2.5243"
       transform="matrix(-1.1095284,0.0808631,-14.970412,0.38759186,3604.7979,173.51344)" />
  </g>
  <g
     inkscape:groupmode="layer"
     id="layer2"
     inkscape:label="Camada 2">
    <path
       style="fill:none;stroke:#ffffff;stroke-width:1.64111733;stroke-linecap:butt;stroke-linejoin:miter;stroke-miterlimit:4;stroke-dasharray:none;stroke-opacity:1"
       d="M 16.933333,35.502082 C 12.603237,35.00914 8.53528,32.552422 6.0833281,28.949554 3.6313762,25.346686 2.8385644,20.66105 3.96875,16.452083 4.6812393,13.798674 6.129007,11.346739 8.1083113,9.4413324 10.087616,7.5359262 12.592839,6.1824576 15.271425,5.5713978 c 2.678586,-0.6110597 5.522933,-0.4779763 8.132761,0.3805217 2.609827,0.8584981 4.977728,2.439974 6.770471,4.5218695 1.792744,2.081896 3.005242,4.658302 3.466861,7.366646 0.46162,2.708344 0.171051,5.540938 -0.830815,8.099156 -1.001866,2.558219 -2.712186,4.834801 -4.890269,6.509368 -2.178083,1.674566 -4.817747,2.742363 -7.547518,3.053123 -1.141613,0.129962 -2.29797,0.129962 -3.439583,0 z"
       id="path946"
       inkscape:connector-curvature="0"
       inkscape:path-effect="#path-effect948"
       inkscape:original-d="M 16.933333,35.502082 C 15.786541,35.502347 8.2905422,22.801818 3.96875,16.452083 c -4.32179235,-6.349735 10.936375,12.699735 16.404166,19.049999 5.467791,6.350265 -2.292791,-2.64e-4 -3.439583,0 z"
       transform="matrix(1.1817759,0,0,1.1869858,-2.032826,-4.0332872)" />
  </g>
</svg>
